<!-- Generator: Adobe Illustrator 19.1.0, SVG Export Plug-In  -->
<svg version="1.1"
	 xmlns="http://www.w3.org/2000/svg" xmlns:xlink="http://www.w3.org/1999/xlink" xmlns:a="http://ns.adobe.com/AdobeSVGViewerExtensions/3.0/"
	 x="0px" y="0px" width="481.199px" height="126.851px" viewBox="0 0 481.199 126.851"
	 style="enable-background:new 0 0 481.199 126.851;" xml:space="preserve">
<style type="text/css">
	.st0{fill:#202227;}
	.st1{fill:#5C5C62;}
	.st2{fill-rule:evenodd;clip-rule:evenodd;fill:#5C5C62;}
	.st3{fill-rule:evenodd;clip-rule:evenodd;fill:#FF4C0E;}
	.st4{fill-rule:evenodd;clip-rule:evenodd;fill:#D2D2D7;}
	.st5{fill-rule:evenodd;clip-rule:evenodd;fill:#202227;}
</style>
<defs>
</defs>
<path class="st0" d="M465.668,86.868c0,2.76-0.552,5.262-1.655,7.504c-1.104,2.243-2.64,4.175-4.607,5.796
	c-1.966,1.621-4.347,2.881-7.142,3.777c-2.794,0.897-5.882,1.346-9.264,1.346c-6.485,0-13.627-2.036-21.425-6.106l4.969-10.143
	c1.035,0.621,2.26,1.294,3.674,2.019c1.415,0.724,2.898,1.38,4.451,1.966c1.552,0.587,3.14,1.069,4.761,1.449
	c1.622,0.38,3.191,0.569,4.709,0.569c2.001,0,3.675-0.569,5.021-1.707c1.345-1.139,2.018-2.57,2.018-4.295
	c0-1.794-0.655-3.191-1.966-4.192c-1.311-1.001-3.382-1.777-6.211-2.329l-6.21-1.138c-1.794-0.345-3.622-1.035-5.485-2.07
	c-1.863-1.035-3.277-2.139-4.243-3.312c-0.966-1.173-1.708-2.623-2.226-4.347c-0.518-1.725-0.776-3.45-0.776-5.175
	c0-2.553,0.483-4.899,1.449-7.038c0.966-2.139,2.346-3.967,4.14-5.485c1.794-1.518,3.95-2.691,6.469-3.519
	c2.518-0.828,5.331-1.242,8.435-1.242c4.278,0,7.901,0.535,10.868,1.604c2.967,1.07,5.658,2.192,8.073,3.364l-4.555,9.315
	c-2.622-1.38-4.95-2.363-6.986-2.95c-2.035-0.586-4.054-0.88-6.055-0.88c-2.001,0-3.622,0.466-4.864,1.397
	c-1.242,0.932-1.863,2.191-1.863,3.777c0,1.38,0.5,2.467,1.501,3.261c1,0.794,2.708,1.501,5.123,2.122l6.417,1.656
	c1.656,0.414,3.036,0.845,4.141,1.294c1.104,0.448,2.053,0.932,2.846,1.449c0.794,0.518,1.467,1.035,2.019,1.553
	c0.552,0.518,1.069,1.087,1.553,1.708C464.702,80.278,465.668,83.28,465.668,86.868"/>
<polygon class="st0" points="400.111,104.88 400.111,52.819 413.98,50.645 413.98,104.88 "/>
<path class="st0" d="M415.636,37.293c0,2.416-0.828,4.451-2.484,6.107c-1.656,1.656-3.691,2.484-6.107,2.484
	c-2.346,0-4.348-0.828-6.003-2.484c-1.656-1.656-2.484-3.691-2.484-6.107c0-2.415,0.846-4.45,2.536-6.106
	c1.69-1.656,3.743-2.484,6.158-2.484c2.346,0,4.33,0.828,5.951,2.484C414.824,32.843,415.636,34.878,415.636,37.293"/>
<path class="st0" d="M374.587,104.88l-5.589-9.729c-0.207-0.414-0.535-1.018-0.983-1.811c-0.448-0.793-0.88-1.604-1.294-2.433
	c-0.414-0.828-0.811-1.587-1.19-2.277c-0.379-0.69-0.604-1.139-0.673-1.346c-0.207,0.621-0.793,1.915-1.759,3.881
	c-0.966,1.967-2.14,4.088-3.52,6.366l-4.45,7.349h-17.803l19.562-28.256l-14.697-22.253l14.386-4.037
	c0.967,1.657,1.795,3.054,2.484,4.192c0.69,1.139,1.294,2.191,1.811,3.157c0.518,0.966,1.001,1.88,1.449,2.743
	c0.448,0.862,0.914,1.811,1.396,2.846c0.276,0.552,0.569,1.156,0.881,1.812c0.31,0.655,0.568,1.225,0.775,1.707
	c0.139-0.414,0.603-1.518,1.397-3.312c0.794-1.794,1.881-4.14,3.261-7.038c0.414-0.897,0.88-1.794,1.396-2.691
	c0.518-0.897,0.88-1.518,1.087-1.863h16.353l-15.732,24.427l19.045,28.567H374.587z"/>
<path class="st0" d="M321.905,70.67c0-2.002-0.12-3.588-0.361-4.761c-0.242-1.173-0.674-2.243-1.295-3.209
	c-1.38-2.07-3.415-3.105-6.105-3.105c-2.622,0-4.658,0.983-6.108,2.95c-1.449,1.966-2.174,4.813-2.174,8.539v0.207h16.043V70.67z
	 M305.656,81.434v0.414c0,4.14,0.966,7.314,2.897,9.522c1.933,2.208,4.692,3.312,8.28,3.312c4.692,0,9.177-1.76,13.455-5.279
	l5.382,8.28c-6.003,4.899-12.661,7.349-19.976,7.349c-3.795,0-7.245-0.656-10.35-1.967c-3.105-1.311-5.745-3.157-7.918-5.537
	c-2.174-2.381-3.847-5.261-5.021-8.642c-1.173-3.381-1.759-7.142-1.759-11.282c0-4.761,0.518-8.797,1.552-12.109
	c1.035-3.312,2.726-6.279,5.072-8.901c2.208-2.415,4.657-4.209,7.349-5.382c2.69-1.173,5.796-1.76,9.315-1.76
	c3.105,0,6.004,0.483,8.694,1.449c2.691,0.966,4.899,2.346,6.624,4.14c2.415,2.484,4.192,5.572,5.331,9.263
	c1.138,3.692,1.707,8.332,1.707,13.921v3.208H305.656z"/>
<polygon class="st0" points="284.403,104.88 246.417,104.88 246.417,32.947 261.218,32.947 261.218,92.874 286.99,92.874 "/>
<path class="st1" d="M235.032,76.136c0,2.829-0.121,5.347-0.362,7.555c-0.241,2.208-0.655,4.227-1.242,6.055
	c-0.587,1.829-1.346,3.502-2.277,5.02c-0.931,1.518-2.087,3.002-3.467,4.451c-1.794,1.932-3.881,3.416-6.262,4.451
	c-2.38,1.035-5.02,1.552-7.918,1.552c-2.07,0-4.054-0.242-5.951-0.724c-1.898-0.483-3.605-1.173-5.123-2.07
	c0.138,0.621,0.206,1.311,0.206,2.07c0,0.759,0,1.518,0,2.276v16.561l-13.352,3.519V65.579c0-1.726-0.018-3.192-0.052-4.399
	c-0.034-1.208-0.069-2.277-0.104-3.208c-0.034-0.932-0.104-1.846-0.207-2.743c-0.104-0.897-0.259-1.898-0.466-3.002l12.317-2.173
	c0.276,0.966,0.483,1.829,0.621,2.587c0.138,0.759,0.242,1.552,0.311,2.38c1.173-1.449,2.967-2.639,5.382-3.571
	c2.415-0.931,4.968-1.397,7.659-1.397c1.863,0,3.709,0.293,5.538,0.88c1.828,0.586,3.467,1.362,4.916,2.329
	c1.449,0.966,2.76,2.122,3.933,3.467c1.173,1.346,2.208,2.95,3.105,4.813c0.897,1.863,1.587,4.002,2.07,6.417
	C234.791,70.374,235.032,73.1,235.032,76.136 M219.921,77.481c0-2.553-0.104-4.813-0.311-6.779
	c-0.207-1.967-0.552-3.605-1.035-4.917c-1.035-2.967-3.243-4.451-6.624-4.451c-3.588,0-6.659,1.346-9.212,4.037v25.772
	c0.966,0.759,2.139,1.466,3.519,2.122c1.38,0.655,2.76,0.983,4.14,0.983c3.45,0,5.899-1.277,7.349-3.83
	C219.197,87.866,219.921,83.554,219.921,77.481z"/>
<path class="st2" d="M40.664,22.211v0.036c0.01,9.967,8.095,18.046,18.064,18.046c9.974,0,18.063-8.089,18.063-18.064
	S68.702,4.165,58.728,4.165C48.759,4.165,40.674,12.244,40.664,22.211z"/>
<circle class="st3" cx="58.751" cy="60.85" r="16.859"/>
<path class="st4" d="M19.035,8.446c10.511,0,19.035,8.524,19.035,19.035c0,10.511-8.524,19.035-19.035,19.035S0,37.991,0,27.48
	C0,16.969,8.524,8.446,19.035,8.446L19.035,8.446z"/>
<circle class="st5" cx="95.923" cy="17.162" r="17.162"/>
<path class="st2" d="M94.39,38.376c9.051,0,16.392,7.34,16.392,16.391c0,9.052-7.34,16.391-16.392,16.391
	c-9.05,0-16.391-7.34-16.391-16.391C77.999,45.716,85.339,38.376,94.39,38.376L94.39,38.376z"/>
<path class="st2" d="M93.075,73.084c8.602,0,15.577,6.975,15.577,15.577c0,8.602-6.975,15.578-15.577,15.578
	c-8.601,0-15.577-6.976-15.577-15.578C77.498,80.059,84.474,73.084,93.075,73.084L93.075,73.084z"/>
<path class="st4" d="M21.204,49.327c10.051,0,18.201,8.15,18.201,18.2c0,10.05-8.15,18.2-18.201,18.2c-10.051,0-18.2-8.15-18.2-18.2
	C3.004,57.477,11.153,49.327,21.204,49.327L21.204,49.327z"/>
<path class="st4" d="M5.753,105.171v0.035c0.009,9.418,7.65,17.053,17.07,17.053c9.427,0,17.071-7.644,17.071-17.07
	c0-9.427-7.644-17.071-17.071-17.071l0,0C13.404,88.118,5.762,95.753,5.753,105.171z"/>
<path class="st4" d="M58.82,80.345c8.93,0,16.171,7.242,16.171,16.172c0,8.93-7.242,16.172-16.171,16.172
	c-8.93,0-16.172-7.242-16.172-16.172C42.648,87.587,49.89,80.345,58.82,80.345L58.82,80.345z"/>
<path class="st1" d="M169.17,105.53c-1.863-1.311-3.243-3.036-4.14-5.175c-1.725,1.656-3.778,2.916-6.158,3.778
	c-2.381,0.862-4.985,1.293-7.814,1.293c-3.726,0-7.038-0.793-9.936-2.38c-2.898-1.587-4.796-3.657-5.693-6.21
	c-0.414-1.173-0.707-2.553-0.88-4.14c-0.172-1.587-0.259-3.726-0.259-6.417V52.33l13.663-2.587v34.052
	c0,2.414,0.104,4.278,0.311,5.589c0.206,1.311,0.483,2.346,0.828,3.104c0.345,0.759,0.983,1.363,1.915,1.812
	c0.932,0.449,1.914,0.673,2.95,0.673c1.725,0,3.45-0.518,5.175-1.552c1.725-1.035,2.863-2.208,3.415-3.519V52.641l13.248-2.794
	v40.469c0,1.794,0.276,3.536,0.828,5.227c0.552,1.69,1.345,3.157,2.38,4.399L169.17,105.53z"/>
<g>
	<path class="st0" d="M473.808,56.612c-4.033,0-7.391-3.179-7.391-7.391s3.357-7.391,7.391-7.391c4.013,0,7.391,3.179,7.391,7.391
		S477.821,56.612,473.808,56.612z M473.808,42.904c-3.397,0-6.079,2.741-6.079,6.317s2.682,6.317,6.079,6.317
		c3.377,0,6.079-2.741,6.079-6.317S477.186,42.904,473.808,42.904z M475.517,53.274c-0.238-0.457-0.357-0.655-0.675-1.212
		c-0.636-1.053-0.834-1.391-1.431-2.046c-0.218-0.238-0.397-0.357-0.735-0.378v3.636h-1.152v-8.205h2.305
		c0.973,0,1.549,0.219,1.947,0.597c0.377,0.337,0.735,0.894,0.735,1.688c0,1.271-0.834,2.305-2.205,2.265
		c0.377,0.298,0.576,0.557,0.715,0.755c0.179,0.219,0.417,0.576,0.695,1.014c0.357,0.556,1.033,1.629,1.192,1.887H475.517z
		 M474.543,46.162c-0.238-0.1-0.576-0.159-1.013-0.159h-0.854v2.861h0.794c0.735,0,1.132-0.119,1.431-0.378
		c0.238-0.238,0.397-0.636,0.397-1.112C475.298,46.797,474.98,46.34,474.543,46.162z"/>
</g>
</svg>